<?xml version="1.0" standalone="no"?>
<!DOCTYPE svg PUBLIC "-//W3C//DTD SVG 20010904//EN"
 "http://www.w3.org/TR/2001/REC-SVG-20010904/DTD/svg10.dtd">
<svg version="1.0" xmlns="http://www.w3.org/2000/svg"
 width="1852.000000pt" height="1852.000000pt" viewBox="0 0 1852.000000 1852.000000"
 preserveAspectRatio="xMidYMid meet">
<metadata>
Created by potrace 1.14, written by Peter Selinger 2001-2017
</metadata>
<g transform="translate(0.000000,1852.000000) scale(0.100000,-0.100000)"
fill="#000000" stroke="none">
<path d="M6829 14056 c-2 -2 -40 -7 -85 -10 -44 -4 -91 -9 -105 -11 -13 -3
-44 -8 -69 -11 -25 -3 -54 -8 -65 -11 -11 -2 -29 -6 -40 -8 -115 -21 -316 -82
-405 -121 -82 -37 -145 -69 -150 -75 -3 -3 -15 -9 -28 -13 -31 -10 -222 -137
-222 -147 0 -5 -6 -9 -12 -9 -12 -1 -48 -31 -148 -125 -42 -39 -103 -104 -160
-171 -40 -47 -144 -195 -175 -249 -15 -27 -33 -53 -39 -57 -6 -4 -7 -8 -3 -8
5 0 -1 -13 -13 -30 -12 -16 -18 -30 -13 -30 4 0 3 -4 -3 -8 -14 -10 -66 -112
-57 -112 5 0 2 -4 -5 -9 -7 -4 -15 -14 -16 -22 -2 -8 -15 -41 -31 -74 -30 -67
-75 -181 -80 -207 -2 -9 -11 -30 -19 -47 -9 -17 -14 -31 -12 -31 2 0 -5 -26
-16 -57 -11 -32 -24 -71 -29 -88 -4 -16 -17 -64 -29 -105 -12 -41 -28 -102
-37 -135 -8 -33 -17 -69 -20 -80 -4 -18 -16 -69 -29 -130 -2 -11 -6 -31 -10
-45 -3 -14 -7 -36 -9 -50 -2 -14 -4 -27 -5 -30 -1 -3 -2 -8 -1 -12 0 -5 -2 -8
-6 -8 -5 0 -8 -12 -9 -27 -1 -28 -5 -53 -29 -173 -3 -14 -8 -42 -11 -63 -7
-48 -12 -72 -14 -72 -1 0 -3 -9 -4 -20 -8 -54 -17 -98 -23 -108 -4 -6 -1 -7 6
-2 10 6 11 3 3 -11 -10 -19 -18 -58 -27 -124 -2 -19 -7 -46 -10 -60 -3 -14 -8
-38 -10 -55 -2 -16 -6 -43 -9 -60 -3 -16 -8 -43 -10 -60 -3 -16 -8 -41 -10
-55 -3 -13 -8 -40 -11 -60 -6 -38 -8 -51 -26 -140 -6 -30 -12 -64 -14 -75 -9
-56 -16 -92 -22 -110 -4 -11 -8 -28 -9 -37 -1 -10 -2 -19 -4 -20 -2 -3 -4 -13
-13 -58 -48 -227 -158 -511 -252 -648 -50 -74 -152 -168 -212 -198 -32 -16
-61 -33 -65 -39 -4 -5 -8 -6 -8 -1 0 5 -6 4 -12 -1 -27 -22 -118 -33 -275 -36
-62 -2 -118 0 -125 3 -11 4 -13 416 -13 2194 l0 2190 -1733 0 -1732 1 0 -4667
0 -4668 1734 0 1734 0 -2 2405 c-1 2284 0 2405 17 2406 22 1 144 1 157 0 8 -1
24 -28 35 -61 1 -3 11 -25 22 -50 27 -59 62 -138 79 -175 7 -16 49 -111 92
-211 44 -99 90 -202 102 -230 12 -27 28 -62 35 -79 20 -47 54 -124 86 -193 16
-35 29 -65 29 -66 0 -2 12 -30 27 -62 15 -33 27 -61 28 -64 1 -5 27 -61 63
-140 9 -19 17 -37 18 -40 1 -7 11 -29 114 -260 50 -113 93 -209 94 -215 2 -5
15 -37 30 -70 16 -33 37 -80 48 -105 10 -25 25 -58 33 -75 7 -16 23 -52 36
-80 12 -27 48 -111 81 -185 70 -156 90 -203 91 -210 0 -3 16 -35 34 -72 18
-37 33 -70 33 -72 0 -3 12 -31 26 -63 14 -32 32 -71 39 -88 7 -16 26 -59 43
-95 16 -36 39 -90 52 -120 12 -30 26 -63 31 -73 6 -10 28 -60 51 -110 22 -51
50 -112 61 -137 11 -25 21 -47 21 -50 1 -3 14 -34 31 -70 16 -36 30 -67 30
-70 1 -3 16 -36 34 -75 18 -38 34 -76 34 -82 0 -7 5 -13 10 -13 6 0 7 -3 4 -7
-4 -3 -3 -11 2 -17 5 -6 30 -60 56 -121 26 -60 59 -135 72 -165 14 -30 35 -75
46 -100 11 -25 21 -47 22 -50 5 -15 22 -54 57 -128 21 -46 38 -86 38 -88 0 -2
11 -27 24 -56 13 -29 43 -96 66 -148 23 -52 49 -112 58 -132 l17 -38 3347 0
3348 0 1 38 c0 20 0 1102 0 2405 0 1811 3 2367 12 2368 81 6 160 2 169 -9 11
-12 98 -199 102 -217 1 -5 17 -44 36 -85 19 -41 34 -78 32 -82 -1 -5 2 -8 8
-8 6 0 9 -3 8 -7 -1 -5 5 -24 14 -43 8 -19 52 -118 97 -220 45 -102 90 -201
99 -220 9 -19 16 -37 17 -40 0 -3 8 -21 17 -40 9 -19 26 -57 38 -85 12 -27 33
-75 47 -105 14 -30 26 -60 27 -66 1 -7 8 -20 16 -30 8 -9 13 -18 11 -18 -4 -1
6 -24 59 -141 13 -27 24 -54 26 -60 1 -5 16 -41 34 -80 52 -114 58 -128 160
-360 34 -77 70 -158 80 -180 10 -22 50 -114 90 -205 40 -91 85 -193 101 -228
16 -35 29 -65 29 -67 0 -2 19 -43 41 -92 23 -48 42 -94 42 -100 0 -7 4 -13 9
-13 4 0 7 -3 6 -7 -1 -5 8 -30 21 -58 13 -27 30 -66 38 -85 9 -19 26 -57 39
-85 12 -27 24 -57 26 -65 2 -8 6 -17 9 -20 3 -3 23 -45 44 -95 21 -49 55 -128
77 -173 21 -46 38 -90 38 -98 0 -8 5 -14 10 -14 6 0 10 -5 10 -12 0 -6 9 -32
21 -57 11 -25 26 -59 34 -76 12 -29 47 -108 75 -170 7 -16 13 -33 12 -37 -1
-5 2 -8 8 -8 6 0 9 -3 8 -7 -1 -5 4 -19 9 -33 11 -25 110 -250 153 -345 12
-27 28 -63 35 -80 19 -45 55 -124 78 -175 12 -25 22 -47 22 -50 1 -3 10 -23
19 -45 10 -22 24 -53 31 -70 7 -16 25 -56 39 -88 l27 -57 1869 0 1869 0 -36
83 c-19 45 -42 98 -50 117 -8 19 -24 55 -35 80 -21 46 -43 96 -77 173 -56 127
-103 238 -105 247 -1 3 -6 12 -11 20 -11 17 -75 159 -79 175 -1 6 -12 31 -24
58 -29 62 -53 116 -92 207 -18 41 -47 108 -66 148 -19 41 -34 75 -34 78 0 2
-11 27 -24 56 -32 71 -56 126 -101 228 -41 95 -50 115 -94 213 -17 38 -31 70
-31 72 0 3 -34 80 -86 193 -13 29 -24 59 -24 66 0 8 -3 16 -7 18 -5 2 -23 39
-42 83 -19 44 -47 109 -64 145 -16 36 -33 74 -38 85 -36 83 -58 136 -59 140
-1 2 -19 44 -41 92 -23 49 -48 104 -56 123 -8 19 -19 43 -24 52 -5 10 -9 25
-9 33 0 8 -4 15 -8 15 -4 0 -14 17 -21 38 -13 35 -47 112 -93 209 -11 23 -19
44 -18 45 1 2 -22 46 -51 98 -28 52 -65 120 -81 150 -17 30 -52 87 -78 127
-27 39 -46 74 -43 77 4 3 1 6 -5 6 -5 0 -20 16 -32 35 -12 20 -27 41 -33 48
-7 6 -25 30 -42 52 -16 22 -33 45 -37 50 -69 90 -252 272 -378 375 -30 25 -56
48 -58 53 -2 4 -10 7 -18 7 -8 0 -14 5 -14 10 0 6 -7 10 -15 10 -8 0 -15 5
-15 10 0 6 -6 10 -14 10 -8 0 -16 4 -18 8 -3 9 -93 72 -102 72 -3 0 -29 15
-58 34 -66 42 -281 145 -368 176 -36 13 -70 27 -76 32 -7 5 -16 8 -20 7 -5 -1
-16 0 -24 4 -86 33 -352 106 -412 112 -18 2 -33 4 -33 5 0 2 -30 8 -70 14 -16
3 -41 7 -55 10 -33 7 -94 15 -150 21 -25 3 -63 7 -85 10 -22 3 -71 8 -110 10
-38 3 -90 8 -115 11 -25 3 -477 7 -1005 9 -528 2 -965 4 -972 4 -8 1 -11 522
-11 2124 0 1812 2 2124 14 2125 8 1 20 2 27 3 9 0 257 -10 315 -14 6 0 12 -3
12 -6 0 -3 15 -6 33 -7 50 -1 140 -14 207 -30 14 -3 41 -9 60 -14 19 -4 49
-13 65 -19 17 -7 31 -12 33 -12 1 1 3 1 5 0 1 0 10 -2 20 -4 10 -2 26 -7 35
-11 9 -4 19 -8 22 -9 3 -2 16 -6 30 -11 42 -13 224 -109 275 -145 64 -45 275
-255 275 -274 0 -8 4 -15 8 -15 9 0 107 -166 117 -197 3 -13 11 -23 16 -23 5
0 9 -7 9 -15 0 -8 4 -23 9 -33 12 -22 65 -167 61 -167 -1 0 4 -13 10 -30 7
-16 14 -38 16 -47 2 -10 6 -26 9 -35 17 -65 23 -98 19 -105 -3 -4 -1 -8 4 -8
5 0 9 -6 9 -12 0 -7 3 -26 6 -42 4 -16 9 -50 13 -75 4 -25 8 -55 11 -66 6 -33
17 -137 17 -172 1 -18 3 -33 6 -33 6 0 8 -52 15 -365 3 -137 6 -254 6 -260 1
-5 0 -14 -1 -20 -2 -12 -2 -126 1 -140 1 -5 1 -14 -1 -20 -2 -11 -2 -278 1
-291 1 -5 0 -13 -1 -19 -1 -5 -1 -53 -1 -105 2 -220 0 -343 -5 -351 -2 -4 0
-10 6 -14 6 -4 8 -11 4 -16 -5 -9 -8 -119 -3 -144 1 -5 1 -14 -1 -20 -2 -11
-2 -278 1 -291 1 -5 0 -13 -1 -19 -1 -9 -2 -166 -1 -210 1 -18 7 -20 54 -18
28 1 153 4 277 7 124 4 248 8 275 10 28 3 88 7 135 10 47 3 103 8 125 10 22 3
63 7 90 10 86 9 159 17 185 22 14 3 39 7 55 9 17 2 45 6 63 9 17 3 47 9 65 12
17 3 43 7 57 9 14 2 48 9 75 15 28 6 57 13 65 15 76 17 130 30 180 44 19 6 58
16 85 23 28 6 52 14 55 17 5 5 17 9 45 15 25 5 91 29 101 37 6 5 19 10 30 12
21 4 52 16 118 47 25 11 52 20 60 20 9 0 16 4 16 10 0 5 12 13 27 16 14 4 72
33 127 66 126 73 140 82 146 88 3 3 36 27 73 54 63 44 237 209 282 266 52 67
102 139 120 173 11 20 23 37 27 37 5 0 8 9 8 20 0 11 4 20 9 20 5 0 13 10 16
23 4 12 18 46 32 76 33 75 76 205 89 271 2 8 6 31 10 50 4 19 9 42 10 50 2 8
6 40 9 70 3 30 8 68 11 83 7 32 6 291 0 357 -8 79 -18 164 -22 183 -2 9 -6 27
-9 40 -16 77 -30 130 -48 187 -12 36 -22 67 -22 70 -1 3 -9 22 -18 44 -9 21
-17 41 -17 45 0 4 -20 45 -45 91 -25 47 -48 93 -52 103 -3 9 -9 17 -14 17 -5
0 -9 6 -9 13 0 6 -18 36 -40 65 -22 29 -40 54 -40 56 0 16 -229 251 -295 303
-22 18 -53 43 -70 56 -121 96 -375 240 -550 311 -38 16 -83 35 -100 42 -32 14
-288 100 -310 104 -3 1 -19 6 -37 11 -108 33 -362 93 -433 103 -11 2 -31 6
-45 9 -14 4 -41 9 -60 12 -19 2 -46 7 -60 10 -14 3 -37 6 -52 7 -16 1 -28 5
-28 8 0 3 -17 5 -38 6 -20 0 -57 4 -82 8 -25 4 -63 8 -85 10 -22 2 -60 7 -85
11 -25 3 -67 8 -95 10 -27 3 -75 7 -105 9 -148 13 -181 16 -255 21 -44 2 -152
8 -240 11 -159 7 -5027 12 -5075 6 l-25 -4 0 -580 c0 -380 -3 -582 -10 -585
-5 -4 -7 -3 -3 1 3 4 0 29 -8 54 -8 26 -16 52 -18 57 -9 36 -40 122 -49 133
-5 6 -7 12 -4 12 3 0 -14 41 -39 90 -24 50 -44 95 -44 100 0 6 -4 10 -10 10
-5 0 -10 4 -10 10 0 13 -62 114 -72 118 -4 2 -8 9 -8 16 0 7 -9 21 -20 31 -11
10 -20 24 -20 31 0 7 -3 14 -7 16 -5 2 -28 28 -53 58 -60 73 -195 209 -245
245 -22 17 -42 32 -45 36 -13 14 -120 89 -128 89 -5 0 -15 7 -22 15 -13 15
-26 23 -160 90 -139 70 -234 108 -244 98 -3 -4 -6 -2 -6 3 0 9 -37 22 -147 48
-10 3 -18 5 -18 6 0 4 -113 28 -165 35 -47 6 -118 17 -140 22 -29 6 -476 14
-481 9z m-1192 -861 c14 -27 25 -52 25 -55 1 -11 18 -51 96 -220 11 -25 20
-47 20 -50 0 -3 12 -28 26 -56 14 -29 26 -57 26 -63 0 -6 5 -11 10 -11 6 0 9
-3 8 -7 -2 -11 -3 -9 109 -258 25 -55 53 -118 63 -140 10 -22 37 -83 60 -135
69 -155 110 -243 126 -272 8 -16 13 -28 10 -28 -3 0 6 -20 19 -45 14 -25 25
-47 25 -50 0 -3 14 -34 30 -70 17 -36 30 -68 30 -70 0 -2 16 -37 35 -77 20
-40 36 -74 36 -75 -1 -2 13 -33 30 -70 17 -38 32 -72 34 -78 1 -5 18 -44 37
-85 39 -82 71 -152 72 -160 1 -3 11 -25 22 -50 12 -25 29 -63 39 -85 9 -22 30
-67 45 -100 39 -81 54 -119 52 -127 -1 -5 2 -8 8 -8 6 0 9 -3 8 -7 -1 -9 14
-44 73 -171 22 -46 39 -86 39 -88 0 -2 14 -34 31 -71 79 -173 109 -242 109
-252 0 -6 5 -11 10 -11 6 0 10 -7 10 -15 0 -8 4 -23 10 -33 5 -9 23 -47 39
-83 28 -62 32 -67 60 -65 17 0 31 3 31 6 0 3 12 6 28 7 31 2 88 10 117 16 55
13 214 60 240 72 17 7 55 23 85 35 59 24 206 96 261 129 19 11 55 32 82 47 26
15 47 31 47 35 0 4 8 10 18 13 25 8 196 138 282 215 98 88 172 164 273 280 46
53 157 208 157 219 0 6 4 12 8 14 10 4 72 105 72 118 0 6 5 10 12 10 6 0 9 3
5 6 -3 3 7 27 22 52 32 56 103 228 121 295 7 26 15 47 19 47 9 0 7 -5927 -2
-5936 -4 -4 -7 -3 -7 3 0 6 -8 28 -17 49 -9 22 -17 41 -18 44 -1 3 -14 32 -29
65 -15 33 -44 98 -64 145 -20 47 -40 87 -44 88 -5 2 -8 10 -8 18 0 8 -11 37
-25 64 -14 28 -26 53 -26 57 -1 8 -16 42 -64 148 -13 28 -38 84 -55 125 -18
41 -36 79 -41 84 -5 6 -9 16 -9 23 0 7 -13 40 -29 72 -16 33 -27 62 -25 64 3
2 -2 10 -11 17 -8 7 -15 19 -15 26 0 8 -16 49 -36 91 -19 43 -42 94 -51 113
-8 19 -23 53 -33 75 -10 22 -25 56 -33 75 -14 34 -34 78 -78 178 -12 26 -33
72 -47 101 -14 30 -25 61 -25 68 0 7 -4 13 -9 13 -4 0 -8 4 -8 10 0 5 -11 33
-24 62 -13 29 -34 76 -46 103 -13 28 -23 56 -23 63 0 6 -4 12 -8 12 -4 0 -11
13 -17 28 -15 44 -184 426 -191 432 -3 3 -7 12 -9 20 -1 8 -7 24 -12 35 -34
73 -80 177 -80 181 0 2 -16 39 -36 81 -20 43 -46 103 -59 133 -13 30 -39 90
-59 133 -20 42 -36 82 -36 87 0 6 -4 10 -8 10 -5 0 -9 6 -9 13 0 6 -17 50 -38
97 -20 47 -46 105 -57 130 -11 25 -26 59 -33 75 -8 17 -32 70 -54 118 -23 49
-41 95 -41 103 0 8 -4 14 -10 14 -5 0 -10 6 -10 14 0 12 -225 14 -1572 15
-865 0 -1590 0 -1612 0 l-39 1 29 23 c35 27 76 69 112 115 15 19 33 41 40 48
6 7 12 15 12 19 0 4 13 26 29 49 26 37 49 83 117 231 7 17 32 86 55 155 38
119 44 137 53 178 2 9 9 37 16 62 7 25 14 53 16 62 2 10 6 26 8 36 13 50 37
169 39 185 1 9 5 17 10 17 4 0 6 4 3 8 -3 5 4 53 15 108 11 54 22 110 24 124
2 14 14 79 26 145 12 66 23 129 25 140 3 24 14 91 19 114 7 36 34 188 39 216
3 17 7 39 9 50 2 11 7 36 11 55 3 19 9 46 12 60 3 14 7 40 10 59 2 19 6 37 9
41 2 4 7 21 10 38 5 33 32 161 41 197 3 11 7 27 9 35 2 8 4 16 5 18 2 1 4 11
5 22 1 11 4 22 5 25 1 3 3 8 4 13 14 61 32 129 47 177 11 33 21 69 23 80 3 11
12 40 21 65 9 25 19 56 21 70 3 14 9 29 15 35 5 5 9 17 9 27 0 10 4 18 9 18 5
0 8 8 7 18 -2 9 1 24 5 32 4 8 29 65 55 125 63 149 120 256 227 430 6 11 14
22 17 25 3 3 27 34 54 70 27 36 57 72 65 81 9 9 24 27 35 39 l19 23 30 -64
c16 -35 41 -86 54 -114z"/>
</g>
</svg>
