<?xml version="1.0" standalone="no"?>
<!DOCTYPE svg PUBLIC "-//W3C//DTD SVG 20010904//EN"
 "http://www.w3.org/TR/2001/REC-SVG-20010904/DTD/svg10.dtd">
<svg version="1.0" xmlns="http://www.w3.org/2000/svg"
 width="884.000000pt" height="884.000000pt" viewBox="0 0 884.000000 884.000000"
 preserveAspectRatio="xMidYMid meet">
<metadata>
Created by potrace 1.14, written by Peter Selinger 2001-2017
</metadata>
<g transform="translate(0.000000,884.000000) scale(0.100000,-0.100000)"
fill="#000000" stroke="none">
<path d="M4345 8580 c-57 -17 -98 -21 -215 -21 -143 0 -280 -19 -280 -40 0 -5
-6 -9 -12 -10 -7 0 -31 -9 -53 -19 l-40 -18 88 3 c60 2 85 -1 78 -8 -5 -5 -23
-10 -39 -11 -17 -1 -28 -4 -25 -8 7 -13 -22 -9 -36 5 -10 8 -12 8 -7 0 4 -8
-6 -11 -39 -9 -36 3 -45 0 -45 -13 0 -12 -2 -13 -8 -3 -6 9 -13 7 -30 -8 -27
-25 -36 -26 -22 -1 5 11 19 23 30 26 45 14 3 25 -98 25 -94 0 -114 -3 -162
-26 -108 -50 -233 -138 -358 -252 -92 -84 -134 -139 -61 -80 24 19 54 40 65
46 29 15 104 31 104 23 0 -8 -12 -15 -105 -56 -73 -33 -59 -44 16 -14 81 32
105 38 120 28 10 -6 7 -9 -12 -9 -15 0 -57 -11 -94 -25 -38 -15 -74 -24 -81
-21 -6 2 -20 -2 -31 -10 -17 -15 -17 -15 5 -11 13 3 20 1 16 -5 -3 -5 -16 -7
-27 -4 -14 3 -30 -2 -45 -17 -13 -12 -27 -22 -30 -22 -4 0 -6 -4 -4 -9 2 -5
-7 -19 -19 -32 -18 -20 -25 -22 -38 -11 -9 7 -12 8 -8 1 4 -7 -2 -23 -13 -36
-10 -14 -20 -31 -22 -39 -2 -7 -17 -29 -35 -49 -21 -23 -28 -37 -21 -41 7 -4
70 -6 141 -4 72 3 134 2 139 -1 5 -3 4 -12 -3 -20 -10 -13 -15 -12 -32 3 -11
10 -18 13 -14 7 6 -10 -21 -15 -153 -27 -14 -1 -23 -6 -20 -10 6 -10 -38 -36
-60 -36 -8 0 -3 7 13 15 33 18 34 24 5 24 -40 0 -52 -14 -38 -41 7 -13 9 -21
5 -17 -5 4 -13 4 -19 -1 -16 -14 -136 -40 -136 -30 0 5 -12 4 -26 -2 -15 -5
-29 -8 -31 -5 -2 2 9 8 26 14 16 6 31 8 34 6 9 -9 126 20 120 29 -4 6 -1 7 7
2 8 -5 11 -4 7 2 -4 7 -26 4 -63 -8 -78 -26 -80 -23 -9 12 50 25 54 28 25 23
-19 -3 -60 -18 -90 -32 -30 -14 -60 -26 -66 -28 -112 -22 -196 -72 -266 -159
-53 -66 -66 -105 -21 -64 l27 24 -25 -31 c-13 -17 -27 -27 -30 -22 -8 12 -46
-48 -53 -82 -19 -97 -26 -152 -36 -275 -16 -206 -49 -522 -60 -585 -6 -30 -12
-152 -14 -270 -3 -134 -1 -196 4 -165 6 37 7 23 4 -50 -4 -64 0 -135 10 -195
8 -52 18 -155 22 -228 3 -73 10 -135 15 -137 4 -3 6 4 4 15 -2 11 0 18 6 15 5
-4 9 -14 10 -23 0 -14 2 -14 10 3 8 17 9 16 6 -7 -2 -15 0 -33 4 -40 11 -16
12 20 2 88 -5 35 -8 43 -13 29 -11 -30 -2 252 9 312 6 29 15 92 21 140 13 107
73 323 105 378 13 22 35 51 51 65 l27 25 -6 -23 c-4 -19 -3 -21 8 -12 11 9 16
0 25 -46 13 -61 9 -103 -21 -232 -11 -45 -17 -86 -14 -91 7 -12 -5 -42 -15
-36 -12 7 -30 -52 -23 -72 5 -11 3 -14 -6 -8 -10 6 -11 2 -6 -15 5 -17 4 -21
-5 -15 -9 5 -11 4 -6 -3 4 -7 -4 -31 -17 -54 -29 -51 -50 -132 -42 -159 3 -10
-8 -73 -24 -140 -32 -123 -40 -259 -21 -319 l8 -25 2 25 c2 24 2 24 10 -4 5
-16 7 -32 5 -36 -5 -8 19 -152 41 -250 15 -63 19 -71 25 -50 7 22 8 20 7 -10
-2 -40 9 -108 21 -130 10 -19 39 -133 57 -225 27 -136 41 -190 46 -175 7 20
35 -110 29 -135 -4 -16 -6 -14 -15 12 -13 36 -26 53 -26 32 1 -8 9 -74 20
-148 10 -73 16 -139 14 -146 -3 -6 0 -34 7 -61 6 -27 13 -62 15 -79 3 -16 11
-64 19 -105 8 -41 17 -97 20 -125 3 -27 11 -77 17 -110 22 -123 4 -396 -33
-492 -5 -13 -9 -34 -8 -46 0 -18 3 -16 15 11 8 17 18 32 23 32 4 0 11 -25 15
-56 7 -61 0 -79 -64 -159 -16 -20 -27 -42 -23 -48 3 -5 1 -7 -5 -3 -6 3 -14
-4 -18 -16 -4 -13 -18 -39 -32 -58 -18 -27 -23 -30 -19 -13 6 28 -11 41 -20
16 -3 -10 -19 -33 -34 -52 -16 -19 -26 -38 -23 -43 3 -5 2 -8 -3 -7 -4 1 -11
0 -15 -1 -5 -1 -14 -3 -20 -4 -7 -1 -12 -7 -11 -13 3 -14 -41 -54 -63 -57 -11
-2 -19 -9 -19 -17 0 -16 -65 -50 -79 -41 -5 3 -6 0 -2 -6 3 -6 -17 -24 -49
-42 -30 -17 -55 -35 -55 -39 0 -8 63 21 122 57 42 25 83 38 74 23 -11 -17 0
-13 15 6 12 14 12 16 0 8 -10 -5 -12 -4 -7 4 4 6 12 8 18 5 5 -4 35 18 65 47
l56 54 -23 -42 c-13 -23 -56 -75 -97 -114 -71 -70 -92 -100 -55 -80 10 5 25
17 32 26 7 9 27 26 44 38 l31 22 -19 -30 c-10 -17 -46 -56 -80 -87 -64 -60
-60 -70 11 -25 47 30 58 33 47 15 -10 -17 56 36 116 92 53 50 80 117 80 201 0
54 17 76 83 110 l38 20 -11 -22 c-8 -15 -9 -19 -1 -15 6 4 11 0 11 -8 0 -9 4
-16 10 -16 17 0 2 -79 -24 -122 -14 -24 -26 -39 -26 -34 0 5 -10 0 -23 -12
-13 -12 -26 -19 -29 -16 -4 3 -5 -2 -4 -13 2 -10 -1 -31 -5 -47 -5 -16 -4 -48
1 -73 12 -51 1 -72 -65 -119 -62 -45 -301 -281 -363 -359 -30 -38 -79 -93
-108 -122 -82 -80 -199 -334 -240 -520 -13 -60 -17 -131 -18 -313 -1 -222 -2
-237 -22 -265 -40 -57 -55 -164 -48 -335 l7 -154 53 58 53 58 36 -12 c47 -15
58 -45 49 -132 l-7 -68 1587 0 1586 0 0 25 c0 92 120 164 371 224 165 39 312
60 434 61 267 4 1082 -8 1100 -15 137 -54 189 -88 353 -234 l22 -20 0 23 c0
63 -24 359 -40 496 -11 94 -15 159 -9 165 13 13 99 -83 171 -193 66 -100 78
-103 78 -21 0 96 -34 255 -193 884 -88 351 -118 489 -120 571 -4 116 12 88
151 -266 52 -134 197 -563 252 -745 23 -77 45 -149 50 -160 l9 -20 0 20 c3 78
-166 643 -255 854 -66 155 -115 265 -139 309 -31 55 -13 45 20 -12 85 -145
280 -666 361 -965 16 -58 18 -62 28 -40 5 13 10 112 10 219 2 351 -14 397
-327 975 -26 50 -62 131 -79 180 -29 85 -30 96 -25 200 9 190 59 396 172 710
153 425 173 500 182 685 9 193 -33 482 -98 665 -17 48 -113 253 -213 454 -191
381 -199 400 -241 569 -31 126 -75 249 -111 309 -20 34 -30 76 -45 176 -17
120 -79 489 -113 677 -7 41 -28 121 -45 176 -37 117 -85 205 -330 604 -57 92
-91 133 -133 157 -15 10 -47 55 -79 112 -97 178 -144 235 -294 353 -136 107
-275 182 -385 208 -70 17 -114 35 -170 71 -73 45 -162 74 -355 114 -234 48
-404 56 -510 25z m-705 -140 c-8 -5 -19 -10 -25 -10 -5 0 -3 5 5 10 8 5 20 10
25 10 6 0 3 -5 -5 -10z m-45 -20 c-3 -5 -12 -10 -18 -10 -7 0 -6 4 3 10 19 12
23 12 15 0z m201 -9 c-6 -9 -56 -22 -56 -14 0 4 40 21 53 22 5 1 6 -3 3 -8z
m-278 -44 c-31 -28 -61 -69 -87 -122 -27 -54 -52 -87 -74 -102 -47 -32 -54
-28 -13 7 20 18 53 67 76 115 34 69 50 89 87 114 63 42 67 38 11 -12z m93 10
c-6 -8 -7 -18 -3 -22 4 -5 1 -5 -5 -1 -7 4 -13 2 -13 -3 0 -10 38 -16 63 -12
5 1 5 -3 2 -9 -4 -6 -14 -9 -23 -5 -12 4 -11 1 4 -16 l19 -22 -27 7 c-17 4
-28 2 -28 -4 0 -5 -7 -10 -16 -10 -8 0 -12 -5 -9 -10 4 -6 3 -10 -2 -9 -4 1
-10 0 -13 -1 -25 -9 -38 -6 -33 8 4 9 2 13 -4 9 -6 -4 -14 -1 -17 5 -3 7 -3 2
0 -11 5 -18 3 -22 -7 -16 -11 6 -11 5 -2 -5 12 -13 -2 -60 -19 -60 -13 0 -9
18 5 23 6 2 8 8 4 13 -10 11 -28 -17 -22 -33 2 -7 1 -13 -3 -13 -4 0 -18 -3
-31 -7 l-23 -6 18 29 c10 16 21 31 25 34 3 3 6 12 6 21 -1 37 43 88 91 105 26
10 51 21 57 26 14 13 19 9 6 -5z m109 -78 c-12 -8 -9 -9 10 -4 62 17 70 17 86
1 15 -15 13 -16 -23 -11 -21 3 -51 1 -68 -4 -29 -9 -29 -9 14 -10 64 -1 45
-11 -40 -20 -76 -8 -99 -6 -99 11 0 5 6 8 13 6 6 -1 25 1 40 5 24 7 27 10 17
22 -11 13 -7 15 26 15 31 0 36 -3 24 -11z m-146 -63 c-10 -8 -21 -12 -24 -10
-5 6 21 24 34 24 6 0 1 -6 -10 -14z m36 -21 c-7 -8 -22 -14 -34 -14 -20 2 -20
2 2 6 12 2 22 9 22 14 0 5 5 9 11 9 8 0 8 -5 -1 -15z m53 -12 c-7 -2 -21 -2
-30 0 -10 3 -4 5 12 5 17 0 24 -2 18 -5z m-188 -43 c-11 -5 -29 -9 -40 -9 -17
-1 -17 1 -5 9 8 5 26 9 40 9 23 0 23 -1 5 -9z m-631 -255 c-4 -8 -11 -15 -16
-15 -6 0 -5 6 2 15 7 8 14 15 16 15 2 0 1 -7 -2 -15z m-59 -95 c-3 -5 -12 -10
-18 -10 -7 0 -6 4 3 10 19 12 23 12 15 0z m60 -199 c-22 -9 -137 -24 -119 -16
14 7 94 23 119 23 l20 1 -20 -8z m-465 -55 c0 -2 -19 -15 -42 -30 l-43 -27 33
30 c28 27 52 39 52 27z m505 -16 c-11 -5 -27 -9 -35 -9 -9 0 -8 4 5 9 11 5 27
9 35 9 9 0 8 -4 -5 -9z m377 -94 c29 -13 60 -24 68 -25 42 -1 111 -15 116 -22
3 -5 -3 -9 -12 -9 -15 0 -16 -2 -5 -12 10 -11 15 -9 27 6 8 11 14 15 14 9 0
-13 26 -11 132 11 40 8 127 18 193 22 115 6 122 6 183 -20 249 -105 409 -207
562 -357 l75 -74 54 -155 c30 -85 57 -159 61 -165 21 -30 52 -154 55 -224 3
-70 31 -177 65 -256 8 -18 24 -70 22 -70 -1 0 3 -17 7 -38 l9 -37 -47 33 c-25
19 -86 56 -136 82 l-90 49 -167 4 c-131 3 -177 1 -220 -12 -30 -8 -88 -23
-128 -31 -135 -28 -240 -65 -241 -83 -1 -10 -4 -7 -8 8 l-7 25 -8 -22 c-8 -25
-26 -31 -26 -10 -1 18 -22 -23 -31 -58 l-7 -30 -1 28 c-1 15 -6 27 -11 27 -11
0 -5 -42 12 -77 13 -26 28 -21 29 10 0 21 1 21 9 2 5 -11 9 -15 9 -10 1 6 6 3
11 -5 6 -9 10 -11 10 -3 0 7 6 10 14 7 17 -7 146 19 251 51 44 13 148 40 232
60 139 33 158 35 225 27 81 -10 205 -58 266 -102 21 -15 48 -30 58 -32 14 -2
20 -13 22 -42 2 -22 10 -49 18 -60 8 -11 14 -25 14 -31 0 -5 -5 -3 -10 5 -18
28 -10 3 30 -99 22 -55 40 -103 40 -106 0 -3 26 -58 58 -123 57 -114 155 -273
210 -337 64 -77 72 -91 69 -112 -2 -12 0 -20 4 -17 5 3 9 -7 9 -21 0 -15 4
-24 10 -20 11 7 11 7 -26 -280 -15 -116 -37 -234 -51 -280 -64 -203 -211 -396
-428 -558 -95 -71 -331 -194 -554 -287 -193 -81 -432 -171 -469 -177 -54 -9
-16 -23 63 -23 84 0 239 31 293 59 22 11 42 17 46 14 3 -3 12 -1 19 5 20 17
158 88 187 97 14 4 34 15 44 24 11 9 16 10 12 4 -5 -9 -2 -11 8 -7 9 3 16 9
16 13 0 4 8 8 18 9 14 1 50 8 60 11 1 1 3 0 5 -1 2 -2 11 4 20 12 9 8 32 26
52 40 19 14 59 43 88 65 29 22 86 62 125 89 139 94 238 200 308 331 12 22 25
39 28 38 3 -2 11 -3 17 -3 16 0 5 -210 -21 -395 -18 -127 -20 -161 -11 -224
16 -104 57 -177 134 -235 21 -15 36 -30 34 -32 -2 -3 7 -17 22 -33 27 -30 45
-76 67 -178 16 -79 37 -126 126 -286 42 -76 82 -135 99 -148 16 -11 29 -17 29
-14 0 4 18 -11 41 -33 24 -25 38 -46 33 -53 -4 -8 -3 -9 4 -5 7 4 12 3 12 -3
0 -5 12 -23 26 -38 14 -15 33 -41 41 -58 9 -16 25 -41 37 -54 11 -13 14 -20 6
-16 -13 8 -13 6 -2 -8 8 -9 10 -22 6 -29 -4 -7 -4 -10 1 -6 11 11 67 -31 59
-44 -4 -6 -2 -8 3 -5 9 6 179 -166 299 -304 27 -31 65 -67 84 -80 61 -42 325
-312 369 -377 l42 -63 -46 35 c-48 37 -112 60 -138 50 -8 -3 -46 11 -83 30
-78 42 -91 43 -162 16 -69 -26 -81 -26 -165 12 -66 29 -81 32 -180 32 -90 1
-111 -2 -121 -16 -10 -13 -23 -15 -72 -11 -46 4 -70 0 -109 -17 -117 -50 -205
-120 -234 -186 -10 -23 -31 -50 -45 -60 -100 -70 -143 -110 -209 -190 -41 -50
-92 -105 -113 -123 -60 -49 -202 -114 -389 -180 -93 -32 -225 -82 -292 -110
-67 -27 -231 -87 -365 -132 -134 -45 -380 -130 -548 -189 -417 -147 -467 -156
-562 -108 -44 21 -67 52 -75 101 -8 54 13 100 95 205 142 181 205 267 302 412
115 172 167 264 214 383 51 125 64 147 81 141 8 -4 13 -10 10 -14 -10 -16 16
-22 28 -6 9 11 16 13 27 6 8 -5 10 -10 4 -10 -6 0 -11 -6 -11 -13 0 -9 10 -13
24 -11 13 1 21 -2 18 -6 -3 -5 -1 -11 4 -14 5 -4 12 -2 15 2 3 5 16 7 30 5 29
-6 69 14 60 29 -4 7 -3 8 5 4 7 -5 18 8 31 36 22 49 26 108 8 108 -9 0 -9 3 1
9 8 5 16 23 17 40 1 16 5 34 8 40 4 5 1 13 -6 17 -8 5 -6 10 8 16 15 7 13 8
-8 5 -16 -3 -28 0 -28 4 0 5 13 9 28 9 36 0 54 20 85 90 81 184 58 431 -79
830 -44 128 -46 143 -55 290 -7 134 -28 297 -45 352 -4 15 -16 16 -102 11
-119 -7 -239 9 -309 41 -63 29 -141 100 -181 164 -87 141 -282 521 -319 622
-11 30 -33 89 -48 130 -15 41 -68 162 -116 268 -104 228 -123 284 -146 440
-14 102 -15 138 -5 282 28 388 28 382 -7 512 -32 122 -38 188 -21 234 9 24 9
25 -5 14 -13 -11 -14 -8 -9 21 3 19 8 40 10 48 3 8 9 103 14 210 6 108 14 240
19 295 11 112 60 285 103 359 15 26 28 52 28 56 0 11 52 46 63 43 5 -1 6 1 3
6 -12 20 172 210 232 241 34 17 160 62 207 74 39 9 55 7 107 -17z m-1215
-1178 c-3 -8 -6 -5 -6 6 -1 11 2 17 5 13 3 -3 4 -12 1 -19z m1790 -270 c-3 -8
-6 -5 -6 6 -1 11 2 17 5 13 3 -3 4 -12 1 -19z m-1670 -745 c-3 -10 -5 -4 -5
12 0 17 2 24 5 18 2 -7 2 -21 0 -30z m61 -248 c0 -16 -2 -15 -8 5 -4 14 -8 36
-8 50 0 22 1 22 8 -5 4 -16 8 -39 8 -50z m9 -47 c-3 -8 -6 -5 -6 6 -1 11 2 17
5 13 3 -3 4 -12 1 -19z m10 -50 c-3 -8 -6 -5 -6 6 -1 11 2 17 5 13 3 -3 4 -12
1 -19z m3333 -7 c0 -24 -23 -43 -44 -35 -16 6 -22 35 -9 47 3 4 17 7 30 7 16
0 23 -6 23 -19z m-3303 -33 c-3 -7 -5 -2 -5 12 0 14 2 19 5 13 2 -7 2 -19 0
-25z m10 -50 c-3 -7 -5 -2 -5 12 0 14 2 19 5 13 2 -7 2 -19 0 -25z m10 -40
c-3 -8 -6 -5 -6 6 -1 11 2 17 5 13 3 -3 4 -12 1 -19z m32 -98 c0 -10 -3 -8 -9
5 -12 27 -12 43 0 25 5 -8 9 -22 9 -30z m9 -61 c-3 -8 -7 -3 -11 10 -4 17 -3
21 5 13 5 -5 8 -16 6 -23z m9 -76 c-3 -10 -5 -4 -5 12 0 17 2 24 5 18 2 -7 2
-21 0 -30z m70 -420 c-3 -10 -5 -4 -5 12 0 17 2 24 5 18 2 -7 2 -21 0 -30z
m823 -1318 c25 -31 62 -80 83 -109 l37 -51 6 -160 c5 -127 2 -177 -11 -240 -9
-44 -20 -132 -25 -196 -5 -71 -14 -129 -24 -147 -17 -33 -104 -88 -155 -98
-27 -6 -31 -4 -31 14 0 11 14 50 30 87 42 94 47 132 22 188 -15 34 -21 72 -23
149 -3 94 0 115 34 238 43 156 46 224 17 318 -11 35 -19 85 -19 110 l2 47 6
-46 c5 -34 19 -62 51 -104z m-757 -372 c-27 -35 -40 -41 -40 -19 0 8 6 12 12
9 7 -2 15 7 19 20 3 13 12 24 20 24 10 0 7 -10 -11 -34z m-60 -744 c-6 -6 -9
-17 -7 -24 7 -17 -13 -29 -22 -14 -5 8 -3 9 6 4 8 -5 11 -3 8 6 -6 16 11 54
20 45 3 -4 1 -11 -5 -17z m1180 -69 c-3 -12 -8 -18 -11 -15 -3 2 -12 -1 -21
-7 -9 -7 -6 -1 7 13 12 14 19 29 15 34 -5 4 -3 5 4 2 6 -4 9 -16 6 -27z
m-1213 -5 c-7 -9 -15 -13 -19 -10 -3 3 1 10 9 15 21 14 24 12 10 -5z m1334
-84 c4 -5 -3 -7 -14 -4 -23 6 -26 13 -6 13 8 0 17 -4 20 -9z"/>
<path d="M3530 8331 c0 -17 18 -21 24 -6 3 9 0 15 -9 15 -8 0 -15 -4 -15 -9z"/>
<path d="M3510 8310 c0 -5 5 -10 11 -10 5 0 7 5 4 10 -3 6 -8 10 -11 10 -2 0
-4 -4 -4 -10z"/>
<path d="M2571 6165 c-17 -5 -32 -14 -33 -20 -2 -5 -10 -10 -19 -9 -24 1 -12
-32 17 -45 14 -6 31 -11 39 -11 8 0 15 -4 15 -10 0 -5 5 -10 11 -10 5 0 7 5 3
12 -4 6 3 4 15 -4 16 -11 31 -14 51 -8 15 4 34 4 41 -1 11 -7 10 -9 -3 -9 -60
0 54 -41 157 -56 22 -3 72 -15 110 -26 121 -35 202 -30 159 10 -12 11 -29 31
-40 44 -20 25 -94 75 -94 63 0 -4 -12 3 -26 14 -24 19 -51 20 -40 2 3 -4 -16
3 -41 16 -49 24 -83 30 -83 13 0 -7 -6 -7 -17 -1 -31 17 -127 44 -160 46 -17
0 -45 -4 -62 -10z m96 -91 c-3 -3 -12 -4 -19 -1 -8 3 -5 6 6 6 11 1 17 -2 13
-5z"/>
<path d="M4050 5874 c-36 -16 -80 -52 -80 -66 0 -14 24 -9 88 17 33 14 85 28
115 31 64 8 221 -12 257 -33 21 -11 21 -13 4 -8 -64 17 -171 14 -239 -7 -38
-11 -73 -26 -77 -32 -4 -6 -8 -7 -8 -2 0 5 -7 3 -15 -4 -8 -6 -19 -9 -25 -5
-5 3 -13 -1 -16 -9 -3 -9 -10 -13 -15 -10 -5 3 -9 1 -9 -4 0 -5 -29 -41 -65
-80 -78 -84 -60 -90 35 -13 69 55 117 81 150 81 19 0 21 -4 16 -47 -4 -35 -3
-41 3 -23 5 14 9 22 10 18 1 -4 17 1 36 12 20 11 40 20 45 20 15 0 12 -26 -5
-40 -13 -11 -12 -16 10 -36 15 -13 32 -24 40 -24 16 0 48 54 38 63 -3 4 5 4
17 2 12 -2 25 -7 28 -10 9 -9 9 -64 0 -59 -4 3 -11 -2 -14 -11 -4 -9 -13 -14
-21 -11 -8 3 -11 1 -8 -4 10 -16 -45 -23 -91 -13 -37 9 -42 8 -33 -3 17 -20
97 -17 147 6 43 20 72 63 72 110 0 22 11 19 54 -13 18 -13 17 -16 -24 -56 -23
-22 -61 -51 -84 -63 -22 -13 -43 -24 -45 -25 -2 -1 4 -14 14 -29 13 -21 19
-24 26 -13 6 11 11 11 21 1 22 -22 28 -13 21 30 -6 41 -5 42 11 25 22 -22 36
-22 36 1 0 14 2 15 10 2 8 -12 10 -10 10 10 1 23 2 24 14 7 12 -16 17 -16 35
-5 13 8 21 23 21 39 0 14 9 34 21 45 12 10 31 33 42 49 20 28 20 29 1 13 -19
-16 -20 -16 -21 2 -1 12 5 20 14 20 13 0 13 3 3 15 -15 18 -35 20 -24 3 4 -7
3 -8 -5 -4 -6 4 -9 12 -6 17 8 12 -39 52 -91 78 -101 51 -368 78 -444 45z
m367 -236 c-3 -8 -6 -5 -6 6 -1 11 2 17 5 13 3 -3 4 -12 1 -19z"/>
<path d="M2780 5871 c-53 -11 -112 -42 -118 -63 -3 -14 -7 -16 -18 -7 -11 9
-14 8 -11 -7 1 -11 6 -24 10 -30 7 -12 -33 -11 -52 0 -5 4 -13 1 -17 -5 -5 -8
-3 -9 6 -4 9 6 11 4 6 -4 -5 -7 -15 -10 -24 -6 -12 4 -11 1 4 -16 27 -30 68
-49 104 -49 23 0 30 -4 30 -20 0 -11 5 -20 11 -20 5 0 7 5 4 10 -22 35 60 91
160 109 66 12 83 2 50 -29 -34 -32 -34 -88 0 -127 15 -17 23 -21 19 -10 -3 9
-9 17 -13 17 -4 0 -5 18 -3 40 4 42 30 70 64 70 22 0 23 -13 3 -30 -9 -7 -15
-23 -13 -34 5 -32 70 -35 92 -5 8 12 13 26 10 30 -2 4 4 7 15 6 11 0 19 -4 19
-7 -1 -3 4 -18 11 -35 11 -28 10 -31 -15 -52 -16 -12 -42 -24 -59 -26 l-30 -4
34 -1 c27 -2 40 5 70 37 67 71 66 67 32 110 -34 43 -39 56 -16 47 26 -10 16 3
-27 34 -22 16 -37 30 -32 30 20 1 -46 29 -103 44 -63 16 -142 19 -203 7z m183
-36 c20 -8 37 -17 37 -20 0 -3 -21 -5 -46 -5 -33 0 -43 3 -38 13 5 8 2 7 -9
-2 -10 -7 -41 -14 -70 -16 -29 -1 -68 -9 -87 -18 -35 -18 -74 -14 -67 6 5 16
61 48 100 58 44 11 135 3 180 -16z"/>
<path d="M2720 5626 c0 -2 8 -10 18 -17 15 -13 16 -12 3 4 -13 16 -21 21 -21
13z"/>
<path d="M3898 5573 c7 -3 16 -2 19 1 4 3 -2 6 -13 5 -11 0 -14 -3 -6 -6z"/>
<path d="M2765 5560 c-3 -5 -1 -10 4 -10 6 0 11 5 11 10 0 6 -2 10 -4 10 -3 0
-8 -4 -11 -10z"/>
<path d="M2800 5550 c-8 -5 -12 -12 -9 -15 4 -3 12 1 19 10 14 17 11 19 -10 5z"/>
<path d="M2837 5543 c-4 -3 -7 -11 -7 -17 0 -6 5 -5 12 2 6 6 9 14 7 17 -3 3
-9 2 -12 -2z"/>
<path d="M4300 5515 c0 -2 9 -19 20 -37 22 -36 27 -25 8 17 -10 21 -28 35 -28
20z"/>
<path d="M3179 4716 c8 -9 20 -16 27 -16 8 0 14 -4 14 -10 0 -5 5 -10 11 -10
22 0 2 24 -31 38 -31 12 -33 12 -21 -2z"/>
<path d="M3454 4710 c-50 -20 -32 -28 48 -23 46 2 94 7 108 10 23 5 24 6 5 13
-27 11 -134 11 -161 0z"/>
<path d="M3710 4660 c-9 -6 -10 -10 -3 -10 6 0 15 5 18 10 8 12 4 12 -15 0z"/>
<path d="M3095 4255 c51 -32 69 -32 30 0 -16 13 -39 24 -50 24 -15 0 -9 -6 20
-24z"/>
<path d="M3981 4253 c-26 -11 -83 -15 -242 -16 -114 -1 -205 -5 -203 -9 3 -4
-68 -5 -158 -2 -106 4 -160 3 -153 -4 20 -19 205 -33 440 -31 l240 1 62 29
c86 40 99 70 14 32z"/>
<path d="M3750 3399 c0 -5 5 -7 10 -4 6 3 10 8 10 11 0 2 -4 4 -10 4 -5 0 -10
-5 -10 -11z"/>
<path d="M3635 1511 c-3 -5 -2 -12 3 -15 5 -3 9 1 9 9 0 17 -3 19 -12 6z"/>
<path d="M2879 7983 c-13 -16 -12 -17 4 -4 9 7 17 15 17 17 0 8 -8 3 -21 -13z"/>
<path d="M2072 6935 c0 -16 2 -22 5 -12 2 9 2 23 0 30 -3 6 -5 -1 -5 -18z"/>
<path d="M2062 6870 c0 -14 2 -19 5 -12 2 6 2 18 0 25 -3 6 -5 1 -5 -13z"/>
<path d="M2339 2673 c-13 -16 -12 -17 4 -4 16 13 21 21 13 21 -2 0 -10 -8 -17
-17z"/>
<path d="M2080 2359 c-22 -18 -22 -19 -3 -10 12 6 25 16 28 21 9 15 3 12 -25
-11z"/>
<path d="M1895 2289 c-4 -6 -5 -12 -2 -15 2 -3 7 2 10 11 7 17 1 20 -8 4z"/>
<path d="M1845 2270 c-3 -5 -2 -10 4 -10 5 0 13 5 16 10 3 6 2 10 -4 10 -5 0
-13 -4 -16 -10z"/>
<path d="M1729 2223 c-13 -17 -13 -17 6 -3 11 8 22 16 24 17 2 2 0 3 -6 3 -6
0 -17 -8 -24 -17z"/>
<path d="M1670 2200 c-13 -8 -13 -10 2 -10 9 0 20 5 23 10 8 13 -5 13 -25 0z"/>
<path d="M7061 2009 c-1 -24 45 -199 79 -299 15 -47 47 -148 70 -225 23 -77
82 -264 131 -415 49 -151 100 -322 113 -380 l25 -105 -5 80 c-3 44 -21 141
-40 215 -41 156 -183 612 -251 798 -25 70 -63 177 -84 237 -21 61 -38 103 -38
94z"/>
</g>
</svg>
