<?xml version="1.0" encoding="UTF-8"?>
<svg id="Layer_1" data-name="Layer 1" xmlns="http://www.w3.org/2000/svg" viewBox="0 0 463.28 240.19">
  <defs>
    <style>
      .cls-1 {
        fill: #1c305c;
      }
    </style>
  </defs>
  <path class="cls-1" d="m91.24,119.76h-4.5v120.43H0V6.67h86.73v109.75h5c38.36,0,1.5-116.42,84.4-116.42,29.86,0,50.71,20.68,50.71,49.87s-29.36,51.54-49.54,52.87l-38.36-85.57c-25.02,26.69-16.35,84.07-36.19,99.24h80.56l54.71,123.76h-93.57l-53.21-120.43Z"/>
  <path class="cls-1" d="m369.71,240.19l-53.21-120.43h-4.5v120.43h-86.73V6.67h116.76c76.06,0,95.07,26.85,95.07,54.04,0,43.37-49.54,47.7-80.4,47.7v-46.37c0-40.03-15.35-52.04-44.7-52.04v106.42h40.03c37.86,0,62.21,12.51,76.23,44.2l35.03,79.56h-93.57Z"/>
</svg>